<?xml version="1.0" encoding="utf-8"?>
<!-- Generator: Adobe Illustrator 25.2.1, SVG Export Plug-In . SVG Version: 6.00 Build 0)  -->
<svg version="1.1" xmlns="http://www.w3.org/2000/svg" xmlns:xlink="http://www.w3.org/1999/xlink" x="0px" y="0px"
	 viewBox="0 0 1117.09 1117.09" style="enable-background:new 0 0 1117.09 1117.09;" xml:space="preserve">
<style type="text/css">
	.st0{fill:#23AEC7;}
</style>
<g id="Background_xA0_Image_1_">
</g>
<g id="Layer_1_xA0_Image_1_">
	<g>
		<g>
			<path class="st0" d="M272.91,822.07c-0.4-26.8,4.73-52.77,12.54-78.28c7.8-25.49,18.99-49.52,31.44-73.02
				c2.38-4.5,6.52-8.69,6.53-13.66c0.01-5.22-5.35-8.41-8.57-12.27c-15.97-19.16-32.15-38.14-48.23-57.21
				c-25.15-29.83-50.51-59.51-72.59-91.76c-20.52-29.97-37.87-61.55-48.47-96.5c-9.39-30.97-13.48-62.46-9.12-94.77
				c2.72-20.12,7.95-39.46,16.99-57.71c9.68-19.54,23.13-35.98,40.39-49.28c16.4-12.65,34.92-19.75,55.66-21.17
				c25.24-1.73,49.02,2.93,71.11,15.48c16.83,9.56,29.73,23.01,39.37,39.72c11.55,20,17.6,41.73,20.54,64.47
				c0.37,2.84,0.81,5.68,1.31,8.5c0.18,0.99,2.59,1.55,3.14,0.73c1.59-2.38,3.23-4.74,4.56-7.27c7.16-13.67,15.72-26.4,25.97-37.9
				c18.3-20.54,39.23-37.58,65.14-47.79c8.09-3.19,16.33-5.45,25.12-5.63c18-0.36,37.4,9.91,44.6,31.45
				c4.28,12.82,4.1,25.85,2.67,38.92c-1.93,17.58-6.98,34.46-12.83,51.08c-12.78,36.32-29.69,70.73-48.45,104.27
				c-24.22,43.29-51.08,84.95-78.31,126.38c-19.14,29.13-38.44,58.17-56.37,88.08c-0.99,1.64-1.94,3.31-2.95,4.94
				c-1.15,1.85-1.02,3.62,0.21,5.35c1.49,2.08,2.98,4.16,4.48,6.23c21.18,29.01,40.19,59.32,54.41,92.4
				c11.56,26.88,20.09,54.62,22.17,84.03c0.93,13.14,0.54,26.21-1.97,39.18c-1.47,7.58-3.89,14.82-7.27,21.78
				c-14.02,28.9-43.7,41.82-70.86,39.98c-30.31-2.06-52.26-17.16-66.73-43.54c-10.05-18.33-14.09-38.31-15.58-58.91
				C272.58,832.97,272.91,827.51,272.91,822.07z M157.76,330.77c-0.06,8.01,0.12,16.02,1.28,23.94
				c4.21,28.72,13.11,55.92,26.17,81.85c16.21,32.19,37.01,61.3,59.69,89.07c23.26,28.48,47.24,56.36,70.91,84.51
				c5.14,6.12,10.29,12.23,15.42,18.37c5.82,6.98,5.83,7,10.94-1.06c3.25-5.13,6.31-10.39,9.61-15.48
				c24.35-37.56,48.94-74.97,73.05-112.69c26.19-40.96,51.33-82.54,72.07-126.61c11.45-24.33,21.94-49.03,28.79-75.11
				c3.25-12.39,5.75-24.91,5.39-37.85c-0.16-5.51-1.18-10.79-3.2-15.89c-3.42-8.6-9.89-13.08-19.01-13.84
				c-4.5-0.38-8.9,0.13-13.27,1.43c-10.85,3.22-20.86,8.26-30.05,14.67c-34.87,24.31-58.22,56.97-69.79,97.94
				c-2.62,9.28-4.72,18.52-2.04,28.3c1.28,4.68-0.56,9.34-4.91,11.51c-5.15,2.57-8.31,6.89-11.99,10.83
				c-2.85,3.05-5.79,6.01-9.8,7.53c-3.96,1.49-7.67,0.85-10.63-2.13c-2.88-2.9-3.99-6.43-2.58-10.54c1.06-3.09,2.9-5.69,4.82-8.24
				c2.11-2.81,4.37-5.5,6.55-8.26c0.85-1.08,1.19-2.43,0.51-3.57c-4.65-7.83-4.3-16.58-4.72-25.17c-0.38-7.67-0.46-15.34-0.75-23.01
				c-0.87-22.55-4.97-44.46-13.62-65.37c-5.43-13.14-12.94-24.98-23.8-34.39c-20.23-17.54-44.19-23.66-70.36-22.29
				c-16.71,0.88-31.72,6.52-45.08,16.88c-16.06,12.46-27.95,28.02-36.03,46.5C161.82,284.28,157.78,307.14,157.76,330.77z
				 M339.83,678.05c-1.47,0.81-2.18,2.24-2.93,3.66c-9.66,18.42-18.84,37.07-25.6,56.78c-11.61,33.86-18.85,68.36-14.89,104.49
				c1.9,17.37,5.86,34.01,15.5,48.89c8.37,12.92,19.78,21.55,35.05,24.76c26.04,5.48,55-5.01,63.13-38.27
				c1.84-7.52,2.46-15.13,2.64-22.82c0.59-24.99-4.95-48.85-13.27-72.22c-13.21-37.1-33.32-70.4-56.1-102.24
				C342.42,679.8,341.57,678.4,339.83,678.05z"/>
			<path class="st0" d="M837.21,502.33c6.96,4.13,11.04,10.68,15.81,16.63c2.79,3.49,5.88,6.75,8.95,10
				c7.88,8.34,17.74,12.21,29.08,12.81c13.6,0.72,26.81-1.25,39.66-5.63c10.31-3.51,20.35-7.66,29.71-13.32
				c1.91-1.15,3.9-2.23,5.97-3.06c6.21-2.51,11.5-1.15,14.41,3.54c2.91,4.69,1.9,9.94-3.24,14.48c-2.86,2.53-6.03,4.78-9.33,6.7
				c-17.63,10.24-36.54,16.84-56.77,19.58c-9.56,1.29-19.09,1.47-28.68,0.04c-13.75-2.04-25.66-7.69-35.5-17.51
				c-4.74-4.73-9.24-9.69-13.8-14.5c-2.42,0.23-3.05,2.23-4.01,3.78c-4.39,7.09-9.36,13.74-14.81,20.04
				c-4.02,4.65-8.69,8.53-14,11.54c-13.47,7.64-25.94,3.57-32.63-10.37c-1.08-2.25-1.13-5.08-3.53-6.67
				c-3.17,0.62-4.48,3.44-6.31,5.55c-4.41,5.1-9.12,9.86-14.54,13.89c-16.81,12.49-34.59,12.29-51.23-0.54
				c-7.46-5.76-13.21-13.03-17.97-21.04c-4.08-6.86-7.64-14.03-11.36-21.1c-1.34-2.54-2.42-5.22-3.76-7.77
				c-0.85-1.62-1.38-4.01-3.58-3.97c-2.82,0.05-3.04,2.87-3.73,4.85c-1.16,3.32-2.09,6.72-3.01,10.11
				c-4.74,17.62-8.05,35.55-11.46,53.46c-0.84,4.4-1.86,8.76-2.92,13.11c-0.94,3.83-2.91,7.06-6.14,9.46
				c-6.37,4.74-14.14,2.97-17.76-4.16c-0.72-1.41-1.2-2.97-1.61-4.51c-0.49-1.85-0.79-3.75-1.18-5.63
				c-0.45-2.12,0.14-5.33-2.15-5.89c-2.89-0.72-3.59,2.88-5.22,4.6c-1.09,1.15-1.87,2.6-2.9,3.82c-5.8,6.87-12.04,13.26-19.81,17.96
				c-15.99,9.66-32.17,7.85-45.61-5.09c-6.57-6.32-11.03-14.03-14.91-22.16c-1.2-2.51-1.55-5.58-4.15-7.26
				c-2.37,0.7-2.35,2.87-2.99,4.49c-5.04,12.8-10.09,25.59-17.55,37.25c-3.98,6.22-8.32,12.14-13.77,17.16
				c-4.76,4.38-10.05,7.87-16.48,9.39c-8.19,1.94-15.17-0.16-21.02-6.15c-4.88-4.99-7.4-11.14-8.52-17.91
				c-1.52-9.26-1.17-18.5,0.96-27.64c5.72-24.43,17.22-46.02,32.65-65.59c8.95-11.35,19.05-21.56,31.29-29.47
				c6.21-4.01,12.77-7.28,19.7-9.82c12.43-4.56,24.46-3.49,36.26,2.28c6.7,3.28,12.48,7.75,17.74,12.94
				c1.12,1.11,2.16,2.39,2.92,3.77c2.11,3.81,1.45,8.49-1.43,11.58c-2.89,3.1-7.48,4.14-11.43,2.1c-2.52-1.3-4.78-3.18-7.04-4.94
				c-4.32-3.37-8.88-6.26-14.16-7.89c-3.43-1.06-6.88-1.51-10.4-0.63c-7.23,1.83-13.72,5.23-19.68,9.65
				c-0.63,0.47-0.96,1.59-1.06,2.46c-0.15,1.27,1.05,1.4,1.91,1.48c1.27,0.11,2.56-0.14,3.83-0.03c6.44,0.56,10.68,4.07,12.57,10.13
				c1.04,3.33,1.59,6.85,2.05,10.32c1.17,8.92,3.22,17.61,6.12,26.11c1.86,5.48,4.37,10.65,7.39,15.57c2.02,3.3,4.6,6.13,7.75,8.41
				c3.99,2.88,8.18,3.29,12.64,1.09c5.56-2.74,10.05-6.76,14.07-11.39c6.75-7.79,12.17-16.44,16.59-25.72
				c4.41-9.25,8-18.83,11.37-28.5c1.48-4.25,2.19-8.66,2.75-13.12c0.63-5.07,1.56-10.11,2.5-15.14c0.6-3.18,1.94-6.09,4.14-8.53
				c4.71-5.22,11.89-5.53,16.98-0.6c1.33,1.29,2.36,2.89,3.5,4.31c3.21-1.3,3.9-4.44,5.76-6.56c2.36-2.68,4.82-5.16,8.2-6.45
				c6.39-2.45,11.96-0.72,16.79,3.73c3.82,3.52,6.41,7.98,8.71,12.55c4.03,8,7.81,16.11,11.81,24.12
				c3.58,7.15,7.19,14.32,12.38,20.48c2.25,2.68,4.62,5.35,7.32,7.55c7.97,6.47,15.42,6.58,23.61,0.46
				c5.67-4.24,10.34-9.5,14.61-15.14c5.99-7.9,11.66-16.08,18.22-23.48c6.83-7.71,12.85-15.79,17.27-25.1
				c2.49-5.24,6.18-9.7,10.07-13.96c1.51-1.65,3.1-3.25,4.81-4.68c16.02-13.48,38.09-7.67,45.47,11.98
				c1.99,5.29,2.16,10.62-0.4,15.83C839.16,498.56,838.29,500.21,837.21,502.33z M454.88,612.1c0.18,1.35,0.39,4.22,0.96,7.01
				c0.73,3.57,3.47,4.41,6.37,1.93c1.92-1.65,3.69-3.53,5.31-5.48c5.52-6.69,9.72-14.2,13.29-22.08
				c5.41-11.93,9.87-24.21,13.84-36.68c3-9.41,5.35-19.06,9.63-28.03c0.57-1.2,0.79-2.62-0.53-3.31c-0.62-0.33-1.95,0.07-2.63,0.58
				c-1.78,1.33-3.46,2.82-5.05,4.38c-17.36,17.13-29.67,37.4-37.43,60.46C456.49,597.25,455.22,603.83,454.88,612.1z M789.35,546.87
				c9.97-6.24,23.52-24.14,30.15-39.32c-6.68-0.8-8.33-0.53-13.8,0.89c-9.58,2.48-15.78,7.93-16.85,18.21
				C788.16,533.2,785.72,539.78,789.35,546.87z"/>
		</g>
	</g>
</g>
</svg>
